<svg xmlns="http://www.w3.org/2000/svg" class="icon icon__twitter" width="23" height="23" viewBox="0 0 23 23" fill="none">
      <path d="M11.8473 0C5.68822 0 0.695312 4.99382 0.695312 11.152C0.695312 17.311 5.68822 22.303 11.8473 22.303C18.0063 22.303 22.9983 17.311 22.9983 11.152C22.9983 4.99382 18.0059 0 11.8473 0ZM17.4647 8.90346C17.4706 9.02392 17.4729 9.14484 17.4729 9.26712C17.4729 12.9811 14.646 17.263 9.47695 17.263C7.89009 17.263 6.41237 16.7979 5.16878 16.0009C5.38888 16.0267 5.61214 16.0398 5.83903 16.0398C7.15598 16.0398 8.36787 15.5906 9.32931 14.837C8.09977 14.8139 7.06224 14.001 6.70447 12.8847C6.87565 12.9182 7.05182 12.9349 7.23297 12.9349C7.4893 12.9349 7.73747 12.9014 7.97342 12.8366C6.68726 12.5785 5.71857 11.4418 5.71857 10.0814C5.71857 10.0692 5.71857 10.0574 5.71902 10.0451C6.09762 10.2557 6.53102 10.3821 6.99204 10.397C6.23756 9.89208 5.74166 9.03298 5.74166 8.05749C5.74166 7.54258 5.88024 7.05937 6.12207 6.64454C7.50832 8.34462 9.5793 9.46366 11.9152 9.5805C11.8672 9.37535 11.8423 9.16024 11.8423 8.94014C11.8423 7.3886 13.1004 6.13007 14.6528 6.13007C15.4612 6.13007 16.1912 6.47154 16.7039 7.01725C17.3442 6.8918 17.9457 6.65722 18.4886 6.33522C18.2781 6.99189 17.8329 7.54258 17.2523 7.88993C17.8216 7.822 18.3632 7.67074 18.8668 7.44748C18.4909 8.01221 18.014 8.5072 17.4647 8.90346Z" fill="black"/>
    </svg>